<svg width="58" height="58" viewBox="0 0 58 58" fill="none" xmlns="http://www.w3.org/2000/svg">
<path d="M29 0C12.9872 0 0 12.9848 0 29C0 41.8132 8.3085 52.6833 19.8336 56.5186C21.2812 56.7868 21.75 55.8878 21.75 55.1242V49.7253C13.6832 51.4798 12.0036 46.3033 12.0036 46.3033C10.6841 42.9514 8.78217 42.0597 8.78217 42.0597C6.15042 40.2593 8.98275 40.2979 8.98275 40.2979C11.8948 40.5009 13.427 43.2873 13.427 43.2873C16.0128 47.7195 20.2106 46.4387 21.866 45.6968C22.1246 43.8238 22.8762 42.543 23.7075 41.8204C17.2671 41.0833 10.4956 38.5966 10.4956 27.4872C10.4956 24.3189 11.629 21.7331 13.4826 19.7031C13.1829 18.9708 12.1897 16.0201 13.7653 12.0278C13.7653 12.0278 16.2013 11.2496 21.7428 15.0002C24.0555 14.3574 26.535 14.036 29 14.0239C31.465 14.036 33.9469 14.3574 36.2645 15.0002C41.8011 11.2496 44.2323 12.0278 44.2323 12.0278C45.8103 16.0225 44.8171 18.9732 44.5174 19.7031C46.3783 21.7331 47.502 24.3213 47.502 27.4872C47.502 38.6256 40.7184 41.0785 34.2611 41.7963C35.3003 42.6953 36.25 44.4594 36.25 47.1661V55.1242C36.25 55.8951 36.714 56.8013 38.1857 56.5162C49.7012 52.6761 58 41.8083 58 29C58 12.9848 45.0153 0 29 0Z" fill="#C0D0EA"/>
</svg>
