<svg width="61" height="61" viewBox="0 0 61 61" fill="none" xmlns="http://www.w3.org/2000/svg">
<path d="M48.2917 0H12.7083C5.69079 0 0 5.69079 0 12.7083V48.2917C0 55.3092 5.69079 61 12.7083 61H48.2917C55.3118 61 61 55.3092 61 48.2917V12.7083C61 5.69079 55.3118 0 48.2917 0ZM20.3333 48.2917H12.7083V20.3333H20.3333V48.2917ZM16.5208 17.1105C14.0656 17.1105 12.0729 15.1026 12.0729 12.627C12.0729 10.1514 14.0656 8.1435 16.5208 8.1435C18.9761 8.1435 20.9688 10.1514 20.9688 12.627C20.9688 15.1026 18.9786 17.1105 16.5208 17.1105ZM50.8333 48.2917H43.2083V34.0482C43.2083 25.4878 33.0417 26.136 33.0417 34.0482V48.2917H25.4167V20.3333H33.0417V24.8194C36.5898 18.2466 50.8333 17.7612 50.8333 31.1125V48.2917Z" fill="#C0D0EA"/>
</svg>
