<svg width="134" height="102" viewBox="0 0 134 102" fill="none" xmlns="http://www.w3.org/2000/svg">
<rect x="4" y="4" width="107" height="94" stroke="#74EBD5" stroke-width="8"/>
<path d="M36.3125 59.9688H23.9844L21.6406 67H14.1641L26.8672 32.875H33.3828L46.1562 67H38.6797L36.3125 59.9688ZM25.8828 54.2734H34.4141L30.125 41.5L25.8828 54.2734ZM54.125 41.6406L54.3359 44.4766C56.1328 42.2734 58.5625 41.1719 61.625 41.1719C64.8906 41.1719 67.1328 42.4609 68.3516 45.0391C70.1328 42.4609 72.6719 41.1719 75.9688 41.1719C78.7188 41.1719 80.7656 41.9766 82.1094 43.5859C83.4531 45.1797 84.125 47.5859 84.125 50.8047V67H77.3281V50.8281C77.3281 49.3906 77.0469 48.3438 76.4844 47.6875C75.9219 47.0156 74.9297 46.6797 73.5078 46.6797C71.4766 46.6797 70.0703 47.6484 69.2891 49.5859L69.3125 67H62.5391V50.8516C62.5391 49.3828 62.25 48.3203 61.6719 47.6641C61.0938 47.0078 60.1094 46.6797 58.7188 46.6797C56.7969 46.6797 55.4062 47.4766 54.5469 49.0703V67H47.7734V41.6406H54.125ZM97.1328 61.5391H109.531V67H88.4844V62.875L100.414 47.125H88.8359V41.6406H109.156V45.6484L97.1328 61.5391ZM121.555 61.5391H133.953V67H112.906V62.875L124.836 47.125H113.258V41.6406H133.578V45.6484L121.555 61.5391Z" fill="white"/>
</svg>
